<svg id="PS_logo_F-03" xmlns="http://www.w3.org/2000/svg" width="339.79" height="72" viewBox="0 0 339.79 72">
  <g id="Group_4" data-name="Group 4">
    <g id="Group_3" data-name="Group 3">
      <path id="Path_3" data-name="Path 3" d="M38.23,73.13a36,36,0,1,1,36-36A36.041,36.041,0,0,1,38.23,73.13ZM49.42,6.4A32.7,32.7,0,1,0,68.96,48.31,32.728,32.728,0,0,0,49.42,6.4Z" transform="translate(-2.23 -1.13)" fill="#fff"/>
    </g>
  </g>
  <g id="Group_7" data-name="Group 7" transform="translate(19.39 17.39)">
    <g id="Group_5" data-name="Group 5" transform="translate(7.41)">
      <path id="Path_4" data-name="Path 4" d="M32.11,23.86,55.08,37.12,32.11,50.39V23.86m-3.08-5.34v37.2l32.22-18.6L29.03,18.52Z" transform="translate(-29.03 -18.52)" fill="#fff"/>
    </g>
    <g id="Group_6" data-name="Group 6" transform="translate(0 4.06)">
      <path id="Path_5" data-name="Path 5" d="M24.71,27.93l15.93,9.2-15.93,9.2V27.93m-3.09-5.35V51.66L46.8,37.12,21.62,22.58Z" transform="translate(-21.62 -22.58)" fill="#fff"/>
    </g>
  </g>
  <g id="Group_12" data-name="Group 12" transform="translate(91.2 25.96)">
    <g id="Group_8" data-name="Group 8" transform="translate(0 0.33)">
      <path id="Path_6" data-name="Path 6" d="M100.8,37.51c2.58,0,4.19-1.44,4.19-3.46v-.06c0-2.27-1.64-3.46-4.19-3.46H96.84v6.98ZM93.43,27.42h7.65c4.52,0,7.37,2.58,7.37,6.49v.06c0,4.35-3.49,6.62-7.76,6.62H96.84v6.24H93.43Z" transform="translate(-93.43 -27.42)" fill="#fff"/>
    </g>
    <path id="Path_7" data-name="Path 7" d="M116.92,27.42h3.41v16.3h10.2v3.11H116.92Z" transform="translate(-93.43 -27.09)" fill="#fff"/>
    <g id="Group_9" data-name="Group 9" transform="translate(44.76 0.33)">
      <path id="Path_8" data-name="Path 8" d="M138.19,38.59V27.43h3.41V38.46c0,3.6,1.86,5.54,4.9,5.54,3.02,0,4.88-1.83,4.88-5.4V27.43h3.41v11c0,5.79-3.27,8.7-8.34,8.7-5.05,0-8.26-2.91-8.26-8.54" transform="translate(-138.19 -27.42)" fill="#fff"/>
      <path id="Path_9" data-name="Path 9" d="M172.84,37.04c2.44,0,3.99-1.28,3.99-3.24v-.06c0-2.08-1.5-3.21-4.02-3.21h-4.96v6.51Zm-8.39-9.62h8.65a7.821,7.821,0,0,1,5.6,1.94,5.873,5.873,0,0,1,1.61,4.18v.06a5.806,5.806,0,0,1-4.63,5.87l5.24,7.34H176.9l-4.77-6.76h-4.27v6.76h-3.41V27.42Z" transform="translate(-138.19 -27.42)" fill="#fff"/>
    </g>
    <path id="Path_10" data-name="Path 10" d="M201.21,39.12l-3.35-7.76-3.33,7.76Zm-4.88-11.83h3.16l8.54,19.54h-3.6l-1.97-4.68h-9.17l-2,4.68H187.8Z" transform="translate(-93.43 -27.09)" fill="#fff"/>
    <path id="Path_11" data-name="Path 11" d="M216.32,27.42h3.41v16.3h10.2v3.11H216.32Z" transform="translate(-93.43 -27.09)" fill="#fff"/>
    <g id="Group_10" data-name="Group 10" transform="translate(143.72 0.05)">
      <path id="Path_12" data-name="Path 12" d="M237.15,44l2.05-2.44a8.94,8.94,0,0,0,6.13,2.52c2.11,0,3.44-.97,3.44-2.44v-.05c0-1.39-.78-2.14-4.38-2.97-4.13-1-6.46-2.22-6.46-5.79v-.06c0-3.33,2.77-5.63,6.62-5.63a10.752,10.752,0,0,1,7.04,2.44l-1.83,2.58a8.841,8.841,0,0,0-5.27-2c-2,0-3.16,1.02-3.16,2.3v.06c0,1.5.89,2.16,4.6,3.05,4.1,1,6.24,2.47,6.24,5.68v.05c0,3.63-2.85,5.79-6.93,5.79A11.87,11.87,0,0,1,237.15,44" transform="translate(-237.15 -27.14)" fill="#fff"/>
    </g>
    <rect id="Rectangle_4" data-name="Rectangle 4" width="3.41" height="19.4" transform="translate(167.93 0.33)" fill="#fff"/>
    <g id="Group_11" data-name="Group 11" transform="translate(180.64)">
      <path id="Path_13" data-name="Path 13" d="M274.07,37.18v-.06a9.886,9.886,0,0,1,10.01-10.03,10.5,10.5,0,0,1,7.46,2.63l-2.16,2.58a7.591,7.591,0,0,0-5.43-2.08,6.565,6.565,0,0,0-6.29,6.85v.06c0,3.99,2.63,6.93,6.6,6.93a7.881,7.881,0,0,0,4.68-1.47V38.96h-4.96V35.99h8.26v8.15a12.4,12.4,0,0,1-8.09,3.02,9.635,9.635,0,0,1-10.08-9.98" transform="translate(-274.07 -27.09)" fill="#fff"/>
    </g>
    <path id="Path_14" data-name="Path 14" d="M301.63,27.42h3.41v8.07h9.25V27.42h3.41V46.83h-3.41V38.65h-9.25v8.18h-3.41Z" transform="translate(-93.43 -27.09)" fill="#fff"/>
    <path id="Path_15" data-name="Path 15" d="M326.27,27.42v3.16h6.16V46.83h3.43V30.58h6.16V27.42Z" transform="translate(-93.43 -27.09)" fill="#fff"/>
  </g>
</svg>
